<svg xmlns="http://www.w3.org/2000/svg"><defs><style>.cls-1{fill:#fff;fill-rule:evenodd;filter:url(#filter)}</style><filter id="filter" x="1019" y="147" width="25.56" height="27" filterUnits="userSpaceOnUse"><feOffset result="offset" dy="1" in="SourceAlpha"/><feGaussianBlur result="blur"/><feFlood result="flood" flood-color="#fff"/><feComposite result="composite" operator="in" in2="blur"/><feBlend result="blend" in="SourceGraphic"/><feFlood result="flood-2" flood-color="#7d7d7d"/><feComposite result="composite-2" operator="in" in2="SourceGraphic"/><feBlend result="blend-2" in2="blend"/></filter><style>.cls-1{fill:#fff;fill-rule:evenodd;filter:url(#filter)}</style><filter id="filter" x="544.125" y="148.375" width="25.531" height="24.625" filterUnits="userSpaceOnUse"><feOffset result="offset" dy="1" in="SourceAlpha"/><feGaussianBlur result="blur"/><feFlood result="flood" flood-color="#fff"/><feComposite result="composite" operator="in" in2="blur"/><feBlend result="blend" in="SourceGraphic"/><feFlood result="flood-2" flood-color="#701dbb"/><feComposite result="composite-2" operator="in" in2="SourceGraphic"/><feBlend result="blend-2" in2="blend"/></filter><style>.cls-1{fill:#fff;fill-rule:evenodd;filter:url(#filter)}</style><filter id="filter" x="1162.78" y="147" width="19.5" height="27" filterUnits="userSpaceOnUse"><feOffset result="offset" dy="1" in="SourceAlpha"/><feGaussianBlur result="blur"/><feFlood result="flood" flood-color="#fff"/><feComposite result="composite" operator="in" in2="blur"/><feBlend result="blend" in="SourceGraphic"/><feFlood result="flood-2" flood-color="#7d7d7d"/><feComposite result="composite-2" operator="in" in2="SourceGraphic"/><feBlend result="blend-2" in2="blend"/></filter><style>.cls-1{fill:#fff;fill-rule:evenodd;filter:url(#filter)}</style><filter id="filter" x="870.531" y="147" width="16.469" height="27" filterUnits="userSpaceOnUse"><feOffset result="offset" dy="1" in="SourceAlpha"/><feGaussianBlur result="blur"/><feFlood result="flood" flood-color="#fff"/><feComposite result="composite" operator="in" in2="blur"/><feBlend result="blend" in="SourceGraphic"/><feFlood result="flood-2" flood-color="#7d7d7d"/><feComposite result="composite-2" operator="in" in2="SourceGraphic"/><feBlend result="blend-2" in2="blend"/></filter></defs><symbol id="Shape1" viewBox="0 0 25.56 27"><path id="Shape_2_copy" data-name="Shape 2 copy" class="cls-1" d="M1031.79 173a13 13 0 1 1 12.77-13 12.9 12.9 0 0 1-12.77 13zm5.37-5.985a13.58 13.58 0 0 1-3.01 4.367 11.323 11.323 0 0 0 5.34-2.8 15.358 15.358 0 0 0-2.33-1.567zm-13.11 1.54a11.325 11.325 0 0 0 5.37 2.827 13.54 13.54 0 0 1-3.07-4.5 13.785 13.785 0 0 0-2.3 1.673zm8.41-3.048v5.546a11.74 11.74 0 0 0 3.48-4.63 11.677 11.677 0 0 0-3.48-.916zm-4.89.767a11.747 11.747 0 0 0 3.54 4.779v-5.585a9.939 9.939 0 0 0-3.54.806zm10.06-.5a18.487 18.487 0 0 1 2.8 1.835 11.689 11.689 0 0 0 2.77-6.926h-4.7a17.662 17.662 0 0 1-.87 5.092zm-17.26-5.091a11.706 11.706 0 0 0 2.74 6.886 14.973 14.973 0 0 1 2.77-1.987 17.709 17.709 0 0 1-.81-4.9h-4.7zm12.09 3.483a13.242 13.242 0 0 1 3.94 1.024 16.147 16.147 0 0 0 .75-4.507h-4.69v3.483zm-6.04-3.483a16.62 16.62 0 0 0 .68 4.305 11.133 11.133 0 0 1 4.01-.867v-3.438h-4.69zm12.08-1.368h4.7a11.7 11.7 0 0 0-2.74-6.885 15.012 15.012 0 0 1-2.77 1.986 17.709 17.709 0 0 1 .81 4.9zm-6.04 0h4.69a16.605 16.605 0 0 0-.68-4.3 11.152 11.152 0 0 1-4.01.866v3.438zm-6.04 0h4.69v-3.483a13.242 13.242 0 0 1-3.94-1.024 16.521 16.521 0 0 0-.75 4.508zm-6.05 0h4.7a17.662 17.662 0 0 1 .87-5.091 17.746 17.746 0 0 1-2.79-1.836 11.642 11.642 0 0 0-2.78 6.928zm12.09-10.369v5.585a9.994 9.994 0 0 0 3.55-.806 11.839 11.839 0 0 0-3.55-4.778zm-4.83 4.63a11.647 11.647 0 0 0 3.48.916v-5.546a11.74 11.74 0 0 0-3.48 4.631zm6.52-4.959a13.54 13.54 0 0 1 3.07 4.5 13.785 13.785 0 0 0 2.3-1.677 11.325 11.325 0 0 0-5.37-2.822zm-10.07 2.8a15.358 15.358 0 0 0 2.33 1.568 13.58 13.58 0 0 1 3.01-4.367 11.323 11.323 0 0 0-5.34 2.799z" transform="translate(-1019 -147)"/></symbol><symbol id="Shape2" viewBox="0 0 25.531 24.625"><path class="cls-1" d="M6.841 22.91a.667.667 0 0 1-.219-.037.68.68 0 0 1-.453-.628l-.121-5.857L.37 13.516a.7.7 0 0 1-.06-.033.785.785 0 0 1-.066-.047.683.683 0 0 1-.23-.358.474.474 0 0 1-.015-.075.681.681 0 0 1 .1-.468.188.188 0 0 1 .016-.023.662.662 0 0 1 .258-.219L24.539.071a.635.635 0 0 1 .124-.051.626.626 0 0 1 .111-.023.66.66 0 0 1 .221.01.667.667 0 0 1 .212.086.7.7 0 0 1 .175.158.667.667 0 0 1 .106.2.787.787 0 0 1 .031.125.719.719 0 0 1-.007.24.676.676 0 0 1-.047.142l-9.06 21.384a.68.68 0 0 1-.121.2l-.025.027a.666.666 0 0 1-.448.2h-.021a.022.022 0 0 1-.008 0 .657.657 0 0 1-.387-.124l-5.121-3.571-2.915 3.6a.669.669 0 0 1-.518.236zm4.3-4.891l3.937 2.746-.177-7.216zm-3.752-1.742l.084 4.1 2.153-2.655.006-.007 9.626-11.442-5.422 4.571-.031.025zm8.819-4.281l.17 6.954 6.109-14.417zM2.714 13.183l3.9 1.974 4.314-3.636zm17.262-9.287L5.45 11.243l7.645-1.547z"/></symbol><symbol id="Shape3" viewBox="0 0 19.5 27"><path id="Shape_3_copy" data-name="Shape 3 copy" class="cls-1" d="M1181.62 173h-18.16a.685.685 0 0 1-.68-.684v-24.632a.685.685 0 0 1 .68-.684h12.11a.686.686 0 0 1 .47.2l6.05 6.158h.01a.679.679 0 0 1 .19.478v18.474a.677.677 0 0 1-.67.69zm-17.49-1.368h16.81v-17.106h-5.38a.677.677 0 0 1-.67-.684v-5.473h-10.76v23.263zm12.11-18.474h3.75l-3.75-3.822v3.822zm2.35 14.71h-12.11a.684.684 0 0 1 0-1.368h12.11a.684.684 0 0 1 0 1.368zm0-3.078h-12.11a.685.685 0 0 1 0-1.369h12.11a.685.685 0 0 1 0 1.369zm-6.05-3.079h-6.06a.685.685 0 0 1 0-1.369h6.06a.685.685 0 0 1 0 1.369zm-.48-7.185h-5.58a.677.677 0 0 1-.67-.684v-3.079a.677.677 0 0 1 .67-.684h5.58a.679.679 0 0 1 .68.684v3.079a.679.679 0 0 1-.68.684zm-4.9-1.368h4.23v-1.711h-4.23v1.711z" transform="translate(-1162.78 -147)"/></symbol><symbol id="Shape4" viewBox="0 0 16.469 27"><path class="cls-1" d="M8.225 25.316a.671.671 0 0 1-.594-.362L.686 11.72a.444.444 0 0 1-.024-.049 8.239 8.239 0 1 1 15.092.079c-.007.015-.013.029-.021.043L8.819 24.955a.672.672 0 0 1-.594.361zM1.886 11.1l6.34 12.079 6.309-12.009a7.023 7.023 0 0 0 .584-2.822 6.895 6.895 0 1 0-13.788 0 7.026 7.026 0 0 0 .555 2.752zm6.339 1.308a4.365 4.365 0 1 1 4.305-4.365 4.34 4.34 0 0 1-4.305 4.369zm0-7.366a3 3 0 1 0 2.96 3 2.984 2.984 0 0 0-2.96-2.996z"/></symbol></svg>